<svg xmlns="http://www.w3.org/2000/svg" width="78" height="66" viewBox="0 0 78 66">
    <g fill="none" fill-rule="evenodd">
        <path stroke="#7BBE43" stroke-width="1.35" d="M22.144 7.046c-10.16.141-11.532 9.58-11.532 9.58v6.257c-.776.68-1.309 1.782-1.309 2.721 0 1.45 1.27 2.625 2.748 2.663.059 3.855 1.687 7.844 5.015 9.35C7.222 38.64.48 43.322.48 49.2.48 50.9 3.265 52.169 7.411 53"/>
        <path stroke="#CFD1D2" stroke-width="1.35" d="M24.415 24.54s-.96-7.455-.96-9.955c0-4.401 1.084-14.068 16.228-14.28C54.997.1 54.901 11.145 54.901 15.114c0 2.63-.96 10.477-.96 10.477"/>
        <path fill="#FFF" d="M25.69 30.62c-2.085 0-3.895-1.651-3.895-3.688s1.81-4.64 3.895-4.64"/>
        <path stroke="#CFD1D2" stroke-width="1.35" d="M25.69 30.62c-2.085 0-3.895-1.651-3.895-3.688s1.81-4.64 3.895-4.64"/>
        <path fill="#FFF" d="M52.725 22.292c2.086 0 3.296 2.603 3.296 4.64 0 2.037-1.277 3.688-3.362 3.688"/>
        <path stroke="#CFD1D2" stroke-width="1.35" d="M52.725 22.292c2.086 0 3.296 2.603 3.296 4.64 0 2.037-1.277 3.688-3.362 3.688"/>
        <path fill="#F5A623" fill-opacity=".173" d="M48.58 43.119c-.042 4.84-4.23 8.75-9.394 8.75s-9.352-3.91-9.394-8.75c-11.67 2.121-20.08 8.114-20.08 15.461 0 9.205 58.947 9.205 58.947 0 0-7.347-8.41-13.34-20.079-15.461"/>
        <path stroke="#F5A623" stroke-width="1.35" d="M48.58 43.119c-.042 4.84-4.23 8.75-9.394 8.75s-9.352-3.91-9.394-8.75c-11.67 2.121-20.08 8.114-20.08 15.461 0 9.205 58.947 9.205 58.947 0 0-7.347-8.41-13.34-20.079-15.461z"/>
        <path stroke="#7BBE43" stroke-width="1.35" d="M56.22 7.046c10.16.141 11.532 9.58 11.532 9.58v6.257c.776.68 1.309 1.782 1.309 2.721 0 1.45-1.27 2.625-2.748 2.663-.059 3.855-1.687 7.844-5.015 9.35 9.844 1.022 16.586 5.704 16.586 11.583 0 1.701-2.785 2.969-6.931 3.801"/>
        <path stroke="#CFD1D2" stroke-width="1.35" d="M52.665 23.284c0-10.363-6.762-14.13-9.78-14.751-3.271-.675.367 3.302-2.9 2.596-2.526-.546-5.903-3.95-7.303-4.146-.2.108-.397.222-.59.34-.04.121-.061.275-.061.465 0 2.748-4.396 4.43-4.713 4.547-1.039 1.897-1.628 8.711-1.628 11.02v7.052c0 7.396 6.038 13.384 13.488 13.384 7.45 0 13.487-5.992 13.487-13.383V23.284z"/>
    </g>
</svg>
