<?xml version="1.0" encoding="utf-8"?>
<!-- Generator: Adobe Illustrator 21.1.0, SVG Export Plug-In . SVG Version: 6.00 Build 0)  -->
<svg version="1.1" id="Layer_1" xmlns="http://www.w3.org/2000/svg" xmlns:xlink="http://www.w3.org/1999/xlink" x="0px" y="0px"
	 viewBox="0 0 20 20" style="enable-background:new 0 0 20 20;" xml:space="preserve">
<g transform="translate(1 .75)">
	<path d="M9.1,18.5c-2.5,0-4.8-0.2-6.5-0.5c-2.2-0.4-3.3-1.1-3.3-2c0-2.3,2.7-4.3,6.7-5l0.2,1c-3.5,0.6-5.9,2.2-5.9,4
		c0,0.5,2.9,1.5,8.8,1.5c5.9,0,8.8-1,8.8-1.5c0-1.8-2.4-3.4-5.9-4c-0.1,0-0.3,0.1-0.6,0.2c-0.5,0.2-1.2,0.5-2.3,0.5v-1
		c0.9,0,1.4-0.2,1.9-0.4c0.4-0.1,0.7-0.3,1.1-0.3c4.2,0.7,6.8,2.6,6.8,5C18.9,18.3,11.4,18.5,9.1,18.5z"/>
	<path d="M8.8,12.7c-3.1,0-5.7-2.8-5.7-6.3c0-3.5,2.6-6.3,5.7-6.3c3.1,0,5.7,2.8,5.7,6.3C14.5,9.9,11.9,12.7,8.8,12.7z M8.8,1.1
		c-2.6,0-4.7,2.4-4.7,5.3s2.1,5.3,4.7,5.3c2.6,0,4.7-2.4,4.7-5.3S11.4,1.1,8.8,1.1z"/>
</g>
</svg>
