<?xml version="1.0" encoding="utf-8"?>
<!-- Generator: Adobe Illustrator 21.1.0, SVG Export Plug-In . SVG Version: 6.00 Build 0)  -->
<svg version="1.1" id="Layer_1" xmlns="http://www.w3.org/2000/svg" xmlns:xlink="http://www.w3.org/1999/xlink" x="0px" y="0px"
	 viewBox="0 0 20 20" style="enable-background:new 0 0 20 20;" xml:space="preserve">
<style type="text/css">
	.st0{fill:none;}
</style>
<g>
	<path class="st0" d="M19,9.9c0.1,5-3.9,9.1-8.9,9.1S1.1,15.1,1,10.1C1,10,1,10,1,9.9c0.1-5,4.1-9,9.1-8.9C15,1.1,18.9,5,19,9.9"/>
	<path d="M10,19.7c-2.5,0-4.9-1-6.8-2.8c-1.8-1.8-2.9-4.2-2.9-6.8V9.9C0.4,4.6,4.7,0.3,10,0.3c0,0,0.1,0,0.1,0
		c5.3,0.1,9.5,4.3,9.6,9.6v0c0.1,5.3-4.2,9.7-9.6,9.8C10.1,19.7,10,19.7,10,19.7z M10,1.7c-4.5,0-8.3,3.7-8.3,8.2v0.2
		c0,2.2,0.9,4.3,2.5,5.9c1.6,1.6,3.7,2.4,5.9,2.4c4.6-0.1,8.3-3.8,8.2-8.4v0c-0.1-4.6-3.7-8.2-8.2-8.2C10.1,1.7,10,1.7,10,1.7z
		 M13.2,14.6c-0.2,0-0.4-0.1-0.5-0.3l-3.2-4.1c0-0.1-0.1-0.1-0.1-0.2c0,0,0,0,0,0v0c0-0.1,0-0.2,0-0.3l0,0c0,0,0,0,0,0
		c0-0.1,0-0.2,0.1-0.3c0,0,0,0,0,0c0,0,0,0,0,0c0-0.1,0.1-0.1,0.1-0.1l2.8-2.5c0.3-0.2,0.7-0.2,0.9,0.1c0.2,0.3,0.2,0.7-0.1,0.9
		L10.9,10l2.8,3.6c0.2,0.3,0.2,0.7-0.1,0.9C13.4,14.6,13.3,14.6,13.2,14.6z"/>
</g>
</svg>
