<svg xmlns="http://www.w3.org/2000/svg" width="82" height="54" viewBox="0 0 82 54">
    <g fill="none" fill-rule="evenodd">
        <path fill="#DADADB" fill-rule="nonzero" d="M32.599 52.144c0-.034.027-.078.102-.114l.64 1.357-.51-1.41c-.074.026-.047.02.006.02.074 0 .1.01.066-.019l-.106-.09-.198-.114v.37zm0-.37l-9.958-5.75-.387-.007C10.656 45.812 1.5 38.58 1.5 29.931 1.5 21.771 13.373 14.5 26 14.5V13C13.473 13 0 20.244 0 29.931 0 39.507 9.9 47.3 22.227 47.517l9.7 5.601c.253.217.557.378.91.378.202 0 .353-.054.504-.109.454-.214.758-.701.758-1.243V45.19C36 44 38 43 38 43l-.67-1.342-.33.168a56.685 56.685 0 0 0-3.696 2.091l-.705.441v7.416zm0 .37c0-.034.027-.078.102-.114l.64 1.357-.51-1.41c-.074.026-.047.02.006.02.074 0 .1.01.066-.019l-.106-.09-.198-.114v.37zm0-.37l-9.958-5.75-.387-.007C10.656 45.812 1.5 38.58 1.5 29.931 1.5 21.771 13.373 14.5 26 14.5V13C13.473 13 0 20.244 0 29.931 0 39.507 9.9 47.3 22.227 47.517l9.7 5.601c.253.217.557.378.91.378.202 0 .353-.054.504-.109.454-.214.758-.701.758-1.243V45.19C36 44 38 43 38 43l-.67-1.342-.33.168a56.685 56.685 0 0 0-3.696 2.091l-.705.441v7.416z"/>
        <path stroke="#7ED321" stroke-width="1.5" d="M37.856 42.13l.444.198v9.553c0 .415.227.786.493.915.219.079.293.097.402.097.222 0 .451-.102.775-.37l11.167-7.293.215-.004c16.02-.283 29.898-10.518 29.898-22.302C81.25 10.757 68.315.75 52.366.75c-15.95 0-28.883 10.007-28.883 22.174 0 7.916 5.451 15.218 14.373 19.206z"/>
    </g>
</svg>
