<?xml version="1.0" encoding="utf-8"?>
<!-- Generator: Adobe Illustrator 21.1.0, SVG Export Plug-In . SVG Version: 6.00 Build 0)  -->
<svg version="1.1" id="Layer_1" xmlns="http://www.w3.org/2000/svg" xmlns:xlink="http://www.w3.org/1999/xlink" x="0px" y="0px"
	 viewBox="0 0 20 20" style="enable-background:new 0 0 20 20;" xml:space="preserve">
<path d="M5.2,17.7v-3.2l-0.1-0.1C2,13.3,0.2,11.3,0.2,9c0-3.5,4.5-6.4,9.8-6.4c5.5,0,9.9,2.8,9.9,6.3c0,3.4-4.2,6.2-9.5,6.3
	l-0.2,0.1L5.2,17.7z M6.2,15v1.1l4.1-1.9c4.7-0.1,8.6-2.5,8.6-5.3c0-2.9-4.1-5.3-8.9-5.3C5.2,3.6,1.2,6.1,1.2,9
	c0,1.8,1.6,3.5,4.3,4.5l0.4,0.2l-0.2,0.4h0.5V15z"/>
</svg>
