<svg xmlns="http://www.w3.org/2000/svg" width="20" height="20" viewBox="0 0 20 20">
    <path fill="#000" fill-rule="evenodd" d="M1.99 0C.89 0 0 .898 0 1.99v16.02C0 19.11.898 20 1.99 20h16.02c1.1 0 1.99-.898 1.99-1.99V1.99C20 .89 19.102 0 18.01 0H1.99zm6.105 14.985l-1.013-.708c-.308-.228-.73-.532-.73-1.088 0-.56.422-.915.787-1.243 1.18-.835 2.28-1.723 2.28-3.596 0-1.71-1.03-2.67-1.72-3.207h1.722L11 4H5.06c-1.474.024-3.23.223-4.833 1.414A6.088 6.088 0 0 0 0 5.6v6.17a5.112 5.112 0 0 0 3.093 1.013c.28 0 .59-.026.9-.05-.14.303-.282.557-.282.987 0 .785.45 1.265.844 1.722-1.074.065-3.28-.1-4.554.815v1.457c.58-.708 1.507-1.024 1.913-1.157 1.18-.355 2.698-.406 2.952-.406.28 0 .42 0 .644.027 2.136 1.368 3.667 2.072 3.683 3.366.003.25-.076.33-.118.457h1.645c.17-.356.227-.776.227-1.244 0-1.748-1.616-2.833-2.852-3.77v-.002zM15.8 2H17v2.882h2.81v1.21H17V9h-1.2V6.092H13v-1.21h2.8V2zM4.51 11.77c-2.418 0-3.41-2.508-3.41-4.203 0-.66.073-1.343.55-1.875.452-.506 1.238-.836 1.97-.836 2.33 0 3.508 2.836 3.508 4.66 0 .365-.207 1.08-.734 1.622-.463.473-1.183.633-1.885.633l.001-.001z"/>
</svg>
