<?xml version="1.0" encoding="utf-8"?>
<!-- Generator: Adobe Illustrator 21.1.0, SVG Export Plug-In . SVG Version: 6.00 Build 0)  -->
<svg version="1.1" id="Layer_1" xmlns="http://www.w3.org/2000/svg" xmlns:xlink="http://www.w3.org/1999/xlink" x="0px" y="0px"
	 viewBox="0 0 20 20" style="enable-background:new 0 0 20 20;" xml:space="preserve">
<g>
	<path d="M10,16.8C10,16.8,10,16.8,10,16.8c-0.2,0-0.3,0-0.4-0.1l-1.8-1.1H2.2C1,15.6,0,14.7,0,13.5V5.2C0,4,1,3.1,2.2,3.1h15.6
		C19,3.1,20,4,20,5.2v8.3c0,1.2-1,2.1-2.2,2.1h-5.9l-1.5,1C10.3,16.7,10.2,16.8,10,16.8z M2.2,4.1C1.5,4.1,1,4.6,1,5.2v8.3
		c0,0.6,0.5,1.1,1.2,1.1H8c0.1,0,0.2,0,0.3,0.1l1.2,0.8V4.1H2.2z M10.5,4.1v11.2l1-0.7c0.1-0.1,0.2-0.1,0.3-0.1h6
		c0.7,0,1.2-0.5,1.2-1.1V5.2c0-0.6-0.5-1.1-1.2-1.1H10.5z M15.5,12h-3.2c-0.3,0-0.5-0.2-0.5-0.5S12,11,12.3,11h3.2
		c0.3,0,0.5,0.2,0.5,0.5S15.8,12,15.5,12z M17.1,9.7h-4.8c-0.3,0-0.5-0.2-0.5-0.5s0.2-0.5,0.5-0.5h4.8c0.3,0,0.5,0.2,0.5,0.5
		S17.4,9.7,17.1,9.7z M17.1,7.3h-4.8c-0.3,0-0.5-0.2-0.5-0.5s0.2-0.5,0.5-0.5h4.8c0.3,0,0.5,0.2,0.5,0.5S17.4,7.3,17.1,7.3z"/>
	<path d="M7.6,12.1H2.8c-0.3,0-0.5-0.2-0.5-0.5V6.8c0-0.3,0.2-0.5,0.5-0.5h4.8c0.3,0,0.5,0.2,0.5,0.5v4.8
		C8.1,11.9,7.9,12.1,7.6,12.1z M3.3,11.1h3.8V7.3H3.3V11.1z"/>
</g>
</svg>
