<?xml version="1.0" encoding="utf-8"?>
<!-- Generator: Adobe Illustrator 21.1.0, SVG Export Plug-In . SVG Version: 6.00 Build 0)  -->
<svg version="1.1" id="Layer_1" xmlns="http://www.w3.org/2000/svg" xmlns:xlink="http://www.w3.org/1999/xlink" x="0px" y="0px"
	 viewBox="0 0 20 20" style="enable-background:new 0 0 20 20;" xml:space="preserve">
<g>
	<path d="M11.7,19.8h-3c-2.3,0-4.2-1.8-4.2-3.9v-2.2c0-0.4,0.3-0.8,0.8-0.8H15c0.4,0,0.8,0.3,0.8,0.8V16c0.1,0.9-0.3,1.8-1,2.6
		C14,19.4,12.9,19.8,11.7,19.8z M6,14.5v1.5c0,1.3,1.2,2.4,2.7,2.4h3c0.8,0,1.5-0.3,2-0.8c0.4-0.4,0.6-1,0.6-1.5l0-1.6H6z
		 M15.1,11.2c-0.1,0-0.2,0-0.3-0.1L5.1,6.9c-0.4-0.2-0.5-0.6-0.4-1c0.2-0.4,0.6-0.6,1-0.4l9.7,4.3c0.4,0.2,0.5,0.6,0.4,1
		C15.7,11.1,15.4,11.2,15.1,11.2z"/>
	<path d="M9.7,14.5c-0.4,0-0.8-0.3-0.8-0.8V12l-3.9-1.8c-0.4-0.2-0.5-0.6-0.4-1c0.2-0.4,0.6-0.5,1-0.4l4.3,2
		c0.3,0.1,0.4,0.4,0.4,0.7v2.3C10.5,14.2,10.1,14.5,9.7,14.5z M15.1,7c-0.1,0-0.2,0-0.3-0.1L5.1,2.6C4.7,2.4,4.5,2,4.7,1.6
		c0.2-0.4,0.6-0.6,1-0.4l9.7,4.3c0.4,0.2,0.5,0.6,0.4,1C15.7,6.8,15.4,7,15.1,7z M14,3.8c-0.1,0-0.2,0-0.3-0.1L9.4,1.6
		C9,1.4,8.8,0.9,9,0.6C9.2,0.2,9.7,0,10,0.2l4.3,2.1c0.4,0.2,0.5,0.6,0.3,1C14.5,3.6,14.3,3.8,14,3.8z"/>
</g>
</svg>
