<svg xmlns="http://www.w3.org/2000/svg" width="20" height="20" viewBox="0 0 20 20">
    <path fill="#000" fill-rule="evenodd" d="M1.99 0C.89 0 0 .898 0 1.99v16.02C0 19.11.898 20 1.99 20h16.02c1.1 0 1.99-.898 1.99-1.99V1.99C20 .89 19.102 0 18.01 0H1.99zm1.003 7.636h2.972v8.943H2.993V7.635v.001zm1.486-1.22h-.02c-.998 0-1.643-.688-1.643-1.546 0-.878.665-1.545 1.682-1.545 1.016 0 1.642.667 1.66 1.545 0 .858-.644 1.545-1.68 1.545l.001.001zm12.204 10.163H13.71v-4.785c0-1.203-.43-2.023-1.504-2.023-.822 0-1.31.553-1.525 1.087-.078.19-.097.457-.097.725v4.994H7.61s.04-8.105 0-8.944h2.973v1.266c.395-.61 1.1-1.476 2.678-1.476 1.957 0 3.424 1.278 3.424 4.025v5.13l-.002.001z"/>
</svg>
