<?xml version="1.0" encoding="utf-8"?>
<!-- Generator: Adobe Illustrator 21.1.0, SVG Export Plug-In . SVG Version: 6.00 Build 0)  -->
<svg version="1.1" id="Layer_1" xmlns="http://www.w3.org/2000/svg" xmlns:xlink="http://www.w3.org/1999/xlink" x="0px" y="0px"
	 viewBox="0 0 20 20" style="enable-background:new 0 0 20 20;" xml:space="preserve">
<path d="M10,19.9c-0.2,0-0.3-0.1-0.4-0.2C9.3,19.4,2.9,11,2.9,7.3c0-3.9,3.2-7.1,7.1-7.1s7.1,3.2,7.1,7.1c0,3.8-6.4,12.1-6.7,12.4
	C10.3,19.8,10.2,19.9,10,19.9z M10,1.2c-3.4,0-6.1,2.7-6.1,6.1c0,2.9,4.7,9.4,6.1,11.3c1.4-1.9,6.1-8.3,6.1-11.3
	C16.1,3.9,13.4,1.2,10,1.2z"/>
<path d="M10,9.2C8.7,9.2,7.8,8.3,7.8,7c0-1.2,1-2.2,2.2-2.2s2.2,1,2.2,2.2C12.2,8.3,11.3,9.2,10,9.2z M10,5.8C9.4,5.8,8.8,6.4,8.8,7
	c0,0.7,0.5,1.2,1.2,1.2s1.2-0.5,1.2-1.2C11.2,6.4,10.6,5.8,10,5.8z"/>
</svg>
