<?xml version="1.0" encoding="utf-8"?>
<!-- Generator: Adobe Illustrator 21.1.0, SVG Export Plug-In . SVG Version: 6.00 Build 0)  -->
<svg version="1.1" id="Layer_1" xmlns="http://www.w3.org/2000/svg" xmlns:xlink="http://www.w3.org/1999/xlink" x="0px" y="0px"
	 viewBox="0 0 20 20" style="enable-background:new 0 0 20 20;" xml:space="preserve">
<path d="M10.1,5.1c1.3,0,2.5-1.1,2.5-2.5s-1.1-2.5-2.5-2.5S7.6,1.3,7.6,2.7S8.7,5.1,10.1,5.1z M10.1,7.6c-1.3,0-2.5,1.1-2.5,2.5
	s1.1,2.5,2.5,2.5s2.5-1.1,2.5-2.5S11.4,7.6,10.1,7.6z M10.1,14.9c-1.3,0-2.5,1.1-2.5,2.5c0,1.3,1.1,2.5,2.5,2.5s2.5-1.1,2.5-2.5
	C12.5,16,11.4,14.9,10.1,14.9z"/>
</svg>
