<?xml version="1.0" encoding="utf-8"?>
<!-- Generator: Adobe Illustrator 21.1.0, SVG Export Plug-In . SVG Version: 6.00 Build 0)  -->
<svg version="1.1" id="Layer_1" xmlns="http://www.w3.org/2000/svg" xmlns:xlink="http://www.w3.org/1999/xlink" x="0px" y="0px"
	 viewBox="0 0 20 20" style="enable-background:new 0 0 20 20;" xml:space="preserve">
<path d="M10.4,0.2C10.3,0.2,10.3,0.2,10.4,0.2l-0.1,0l-0.1,0c-4.6,0-8,2-8,4.8c0,0.3,0.3,0.6,0.6,0.6h6.9V9H6.7
	c-1.4,0-2.5,1.1-2.5,2.5v1.9c-0.9,0.7-1.4,1.8-1.4,2.9c0,2,1.6,3.7,3.6,3.7c1,0,1.9-0.4,2.5-1.1c0,0,0.1-0.1,0.1-0.1
	c0.2-0.2,0.3-0.4,0.5-0.6h5.4l-0.2,1.1c-0.1,0.3,0.1,0.6,0.4,0.7c0,0,0.1,0,0.1,0c0.3,0,0.5-0.2,0.6-0.5l0.4-1.8l0,0l1.2-5.7
	c0.2-0.7,0-1.5-0.5-2.1C16.4,9.3,15.7,9,14.9,9h-4.2V5.5h6.9c0.3,0,0.6-0.3,0.6-0.6c0,0,0,0,0,0C18.2,2.2,14.9,0.2,10.4,0.2
	L10.4,0.2L10.4,0.2z M6.5,4.4H3.4C3.7,3.1,5.3,2,7.5,1.6C6.9,2.3,6.6,3.3,6.5,4.4L6.5,4.4z M8.9,16.3c0,0.7-0.3,1.3-0.8,1.8
	c-0.5,0.5-1.1,0.7-1.7,0.7c-1.4,0-2.5-1.2-2.5-2.6s1.1-2.6,2.5-2.6C7.8,13.7,8.9,14.8,8.9,16.3C8.9,16.2,8.9,16.3,8.9,16.3z
	 M14.9,10.1c0.4,0,0.8,0.2,1.1,0.5c0.3,0.3,0.4,0.7,0.3,1.2L15.1,17H10c0.1-0.3,0.1-0.6,0.1-0.9c0-2-1.7-3.7-3.6-3.7
	c-0.4,0-0.8,0.1-1.1,0.2v-1.2c0-0.8,0.6-1.4,1.4-1.4L14.9,10.1L14.9,10.1L14.9,10.1z M7.6,4.4c0.2-1.8,1.2-3.1,2.6-3.1l0,0
	c1.4,0,2.4,1.3,2.6,3.1L7.6,4.4L7.6,4.4z M14,4.4c-0.1-1.1-0.4-2-1-2.7c2.1,0.5,3.5,1.5,3.9,2.7H14z"/>
</svg>
