<?xml version="1.0" encoding="utf-8"?>
<!-- Generator: Adobe Illustrator 21.1.0, SVG Export Plug-In . SVG Version: 6.00 Build 0)  -->
<svg version="1.1" id="Layer_1" xmlns="http://www.w3.org/2000/svg" xmlns:xlink="http://www.w3.org/1999/xlink" x="0px" y="0px"
	 viewBox="0 0 20 20" style="enable-background:new 0 0 20 20;" xml:space="preserve">
<g>
	<path d="M15.1,0.3H5c-1,0-1.7,0.9-1.7,2.1v15.4c0,0.7,0.3,1.3,0.8,1.6c0.5,0.3,1.1,0.3,1.5,0l4.1-2.9c0.2-0.2,0.5-0.2,0.7,0
		l4.1,2.9c0.2,0.2,0.5,0.3,0.8,0.3s0.5-0.1,0.8-0.3c0.5-0.3,0.8-0.9,0.8-1.6V2.4C16.9,1.3,16.1,0.3,15.1,0.3z M15.6,17.7
		c0,0.2-0.1,0.3-0.2,0.4c-0.1,0.1-0.3,0.1-0.4,0l-4-2.9c-0.6-0.4-1.3-0.4-1.9,0l-4,2.9c-0.1,0.1-0.3,0.1-0.4,0s-0.2-0.2-0.2-0.4V2.5
		c0-0.4,0.3-0.7,0.6-0.7h10c0.3,0,0.6,0.3,0.6,0.7v15.2H15.6z"/>
	<path d="M15.3,20c-0.4,0-0.7-0.1-1-0.4l-4.1-2.9c-0.2-0.2-0.3-0.1-0.4,0l-4.1,2.9C5.3,20,4.6,20,4,19.6c-0.6-0.3-0.9-1-0.9-1.8V2.4
		C3,1,3.9,0,5,0h10.1c1.1,0,2.1,1.1,2.1,2.4v15.4c0,0.8-0.3,1.5-0.9,1.8C15.9,19.8,15.7,20,15.3,20z M10,16.1c0.2,0,0.4,0.1,0.5,0.2
		l4.1,2.9c0.2,0.2,0.4,0.3,0.7,0.3c0.2,0,0.4-0.1,0.7-0.3c0.4-0.3,0.7-0.8,0.7-1.4V2.4c0-1-0.7-1.9-1.6-1.9H5
		c-0.8,0-1.5,0.8-1.5,1.9v15.4c0,0.6,0.3,1.1,0.7,1.4c0.4,0.2,0.9,0.3,1.2,0l4.1-2.9C9.7,16.2,9.9,16.1,10,16.1z M15.2,18.4
		C15.2,18.4,15.2,18.4,15.2,18.4c-0.1,0-0.3-0.1-0.4-0.1l-4-2.9c-0.5-0.3-1.1-0.3-1.6,0l-4,2.9c-0.1,0.1-0.2,0.1-0.3,0.1h0
		c-0.1,0-0.3-0.1-0.4-0.1c-0.1-0.1-0.3-0.3-0.3-0.6V2.5c0-0.5,0.4-1,0.9-1h10c0.5,0,0.9,0.4,0.9,1V18h-0.1c-0.1,0.2-0.2,0.3-0.2,0.3
		C15.5,18.4,15.3,18.4,15.2,18.4z M5.1,2C4.9,2,4.8,2.2,4.8,2.5v15.2c0,0.1,0,0.1,0.1,0.2l0,0l0.1,0L9,15c0.7-0.5,1.5-0.5,2.2,0
		l4.1,2.9c0.1-0.1,0.1-0.1,0.1-0.2v-0.2h0.1v-15c0-0.3-0.2-0.5-0.4-0.5H5.1z"/>
</g>
</svg>
