<?xml version="1.0" encoding="utf-8"?>
<!-- Generator: Adobe Illustrator 21.1.0, SVG Export Plug-In . SVG Version: 6.00 Build 0)  -->
<svg version="1.1" id="Layer_1" xmlns="http://www.w3.org/2000/svg" xmlns:xlink="http://www.w3.org/1999/xlink" x="0px" y="0px"
	 viewBox="0 0 20 20" style="enable-background:new 0 0 20 20;" xml:space="preserve">
<path d="M12.4,13.9l6,6.1l1.5-1.6l-6-6.1c1-1.3,1.5-2.9,1.5-4.5c0-4.3-3.4-7.7-7.6-7.7c-4.2,0-7.6,3.4-7.6,7.7
	c0,4.3,3.4,7.7,7.6,7.7C9.5,15.5,11.1,14.9,12.4,13.9z M7.9,2.3c3,0,5.5,2.5,5.5,5.5s-2.5,5.5-5.5,5.5s-5.5-2.5-5.5-5.5
	S4.8,2.3,7.9,2.3z"/>
</svg>
