<?xml version="1.0" encoding="utf-8"?>
<!-- Generator: Adobe Illustrator 21.1.0, SVG Export Plug-In . SVG Version: 6.00 Build 0)  -->
<svg version="1.1" id="Layer_1" xmlns="http://www.w3.org/2000/svg" xmlns:xlink="http://www.w3.org/1999/xlink" x="0px" y="0px"
	 viewBox="0 0 20 20" style="enable-background:new 0 0 20 20;" xml:space="preserve">
<path d="M15.4,18.8c-0.2,0-0.4,0-0.6-0.1L10,15.4l-4.7,3.2c-0.5,0.2-0.9,0.2-1.3,0l-0.2-0.1c-0.6-0.6-0.5-1.1-0.3-1.4l1.7-5.2
	L0.4,8.8C-0.1,8.2,0,7.7,0.1,7.4c0.2-0.3,0.6-0.8,1.1-0.8H7L9,1.4c0.2-0.5,0.6-0.8,1.1-0.8c0.5,0,0.9,0.4,1.1,0.8L13,6.6h5.8
	c0.5,0,0.9,0.4,1.1,0.8L20,7.5v0.2c0,0.2,0,0.7-0.4,1.1l-0.1,0.1l-4.7,3.2l1.7,5.2c0.1,0.2,0.1,0.5,0,0.7c-0.1,0.3-0.3,0.5-0.5,0.6
	C15.8,18.8,15.6,18.8,15.4,18.8z M15.3,17.8C15.3,17.8,15.3,17.8,15.3,17.8L15.3,17.8z M4.7,17.7L4.7,17.7
	C4.7,17.7,4.7,17.7,4.7,17.7z M10,13.8l5.2,3.6l-1.9-5.8l5.2-3.6H12l-1.9-5.8L8,7.9H1.5l5.2,3.6l-1.9,5.8L10,13.8z M10,1.8
	C10,1.8,10,1.8,10,1.8L10,1.8z"/>
</svg>
