<svg xmlns="http://www.w3.org/2000/svg" width="22" height="32" viewBox="0 0 22 32"><g fill="none" fill-rule="evenodd" transform="translate(1 1)"><rect width="20" height="30" stroke="#D0D2D3" rx="1"/><path stroke="#19A7DD" stroke-width="1.35" d="M10.014 7.1h6.197"/><path fill="#E7F3FA" d="M8.026 7.1c0 1.152-.942 2.087-2.104 2.087-1.162 0-2.104-.935-2.104-2.088 0-1.154.942-2.09 2.104-2.09 1.162 0 2.104.936 2.104 2.09z"/><path stroke="#19A7DD" stroke-width="1.35" d="M8.026 7.1c0 1.152-.942 2.087-2.104 2.087-1.162 0-2.104-.935-2.104-2.088 0-1.154.942-2.09 2.104-2.09 1.162 0 2.104.936 2.104 2.09z"/><path stroke="#E6E7E7" stroke-width="1.35" d="M2.858 18.652h5.116m7.023 0h2.173"/><path stroke="#7DBF4B" stroke-width="1.35" d="M2.858 24.348h4.368m-4.368-3H17.17"/><path stroke="#E6E7E7" stroke-width="1.35" d="M2.858 15.956h4.098m8.04 0h2.174M2.858 13.26h7.892m4.247 0h2.173"/></g></svg>
