<svg xmlns="http://www.w3.org/2000/svg" width="26" height="30" viewBox="0 0 26 30"><g fill="none" fill-rule="evenodd"><path fill="#FFF" d="M2.862 29.43c-.806 0-1.46-.642-1.46-1.432V2.27c0-.244.05-.482.146-.707.093-.215.227-.41.398-.577.35-.345.816-.535 1.31-.535h13.013c.065 0 .127.027.172.072l8.07 7.922c.047.045.073.106.073.17v18.998c0 .245-.05.483-.146.707-.142.323-.374.6-.673.8-.307.203-.665.31-1.035.31H2.862"/><path stroke="#DADADB" stroke-width="1.35" d="M16.27.692l8.07 7.922v18.998c0 .217-.045.424-.127.613-.122.283-.327.525-.583.695-.257.17-.567.27-.898.27H2.862c-.67 0-1.215-.536-1.215-1.192V2.27c0-.217.045-.424.126-.612.082-.19.2-.36.346-.502.29-.286.693-.464 1.135-.464H16.27"/><path stroke="#E6E7E7" stroke-width="1.35" d="M4.04 13.58h6.308m7.817 0h3.785M4.04 17.96h5.99m7.672 0h4.248M4.04 22.334h9.564m4.098 0h4.248m-5.713 3.656h5.713"/><path fill="#FFF" d="M17.485 8.854c-.805 0-1.46-.642-1.46-1.433V.693c0-.097.06-.185.15-.222.03-.013.063-.02.094-.02.063 0 .126.026.172.072l8.07 7.922c.07.07.092.172.054.262-.038.09-.127.148-.226.148h-6.855"/><path stroke="#DADADB" stroke-width="1.35" d="M16.27.692l8.07 7.922h-6.855c-.67 0-1.216-.537-1.216-1.193V.693" stroke-linecap="round" stroke-linejoin="round"/><path fill="#F37F2A" fill-opacity=".348" stroke="#E7690D" stroke-width="1.35" d="M10.695 11.538L8.17 8.308l-2.525 3.23V.768h5.05z" stroke-linecap="round" stroke-linejoin="round"/></g></svg>
