<svg xmlns="http://www.w3.org/2000/svg" width="37" height="32" viewBox="0 0 37 32"><g fill="none" fill-rule="evenodd"><path stroke="#7BBE43" stroke-width="1.35" d="M10.937 4.204c-4.56.065-5.175 4.358-5.175 4.358v2.846c-.348.31-.587.81-.587 1.237 0 .66.57 1.194 1.233 1.21.026 1.755.756 3.57 2.25 4.254-4.417.464-7.443 2.593-7.443 5.267 0 .774 1.25 1.35 3.11 1.73"/><path stroke="#CFD1D2" stroke-width="1.35" d="M11.955 12.16s-.43-3.39-.43-4.526c0-2.002.486-6.4 7.282-6.495 6.87-.095 6.828 4.93 6.828 6.734 0 1.196-.43 4.765-.43 4.765"/><path fill="#FFF" d="M12.528 14.927c-.936 0-1.748-.75-1.748-1.678 0-.927.812-2.11 1.748-2.11"/><path stroke="#CFD1D2" stroke-width="1.35" d="M12.528 14.927c-.936 0-1.748-.75-1.748-1.678 0-.927.812-2.11 1.748-2.11"/><path fill="#FFF" d="M24.66 11.14c.934 0 1.478 1.183 1.478 2.11 0 .926-.573 1.676-1.51 1.676"/><path stroke="#CFD1D2" stroke-width="1.35" d="M24.66 11.14c.934 0 1.478 1.183 1.478 2.11 0 .926-.573 1.676-1.51 1.676"/><path fill="#F5A623" fill-opacity=".173" d="M22.8 20.61c-.02 2.202-1.9 3.98-4.216 3.98-2.318 0-4.197-1.778-4.216-3.98-5.236.966-9.01 3.692-9.01 7.033 0 4.187 26.45 4.187 26.45 0 0-3.34-3.773-6.067-9.01-7.032"/><path stroke="#F5A623" stroke-width="1.35" d="M22.8 20.61c-.02 2.202-1.9 3.98-4.216 3.98-2.318 0-4.197-1.778-4.216-3.98-5.236.966-9.01 3.692-9.01 7.033 0 4.187 26.45 4.187 26.45 0 0-3.34-3.773-6.067-9.01-7.032z"/><path stroke="#7BBE43" stroke-width="1.35" d="M26.227 4.204c4.56.065 5.175 4.358 5.175 4.358v2.846c.348.31.587.81.587 1.237 0 .66-.57 1.194-1.234 1.21-.027 1.755-.757 3.57-2.25 4.254 4.417.464 7.442 2.593 7.442 5.267 0 .774-1.25 1.35-3.11 1.73"/><path stroke="#CFD1D2" stroke-width="1.35" d="M24.632 11.59c0-4.713-3.035-6.426-4.39-6.71-1.467-.306.166 1.503-1.3 1.182-1.134-.25-2.65-1.797-3.277-1.886-.09.05-.178.1-.265.155-.018.056-.027.126-.027.212 0 1.25-1.973 2.015-2.115 2.068-.466.863-.73 3.962-.73 5.013V14.83c0 3.364 2.71 6.087 6.052 6.087 3.343 0 6.052-2.725 6.052-6.087v-3.24z"/></g></svg>
