<svg xmlns="http://www.w3.org/2000/svg" width="43" height="28" viewBox="0 0 43 28" xmlns:xlink="http://www.w3.org/1999/xlink"><defs><path id="a" d="M19.62 22.348v4.732c0 .37.205.7.514.846.102.037.205.074.342.074.24 0 .446-.11.617-.257l5.723-3.745c8.37-.148 15.96-5.517 15.96-12.032C42.775 5.376 35.843 0 27.337 0 18.83 0 11.9 5.375 11.9 11.966c0 4.307 2.95 8.246 7.72 10.382z"/></defs><g fill="none" fill-rule="evenodd"><path stroke="#DADADB" stroke-width="1.5" d="M16.86 26.83l-5.172-3.038-.197-.004C5.493 23.68.75 19.866.75 15.292c0-4.635 4.9-8.497 10.99-8.497 6.087 0 10.988 3.86 10.988 8.497 0 3.007-2.048 5.8-5.43 7.34l-.44.2v4zm0 0v.14s.003-.006.073-.038h.024c.035 0 .044.004.023-.014l-.113-.08-.008-.007z"/><use fill="#FFF" xlink:href="#a"/><path stroke="#7ED321" stroke-width="1.5" d="M19.925 21.663l.444.2v5.217c0 .08.04.147.02.14.076.03.082.03.086.03.02 0 .06-.018.207-.135l5.904-3.863.216-.004c8.17-.145 15.222-5.356 15.222-11.282 0-6.13-6.56-11.216-14.687-11.216-8.13 0-14.688 5.085-14.688 11.216 0 3.98 2.75 7.67 7.275 9.697z"/></g></svg>
