<svg xmlns="http://www.w3.org/2000/svg" width="20" height="20" viewBox="0 0 20 20">
    <path fill="#000" fill-rule="evenodd" d="M1.99 0C.89 0 0 .898 0 1.99v16.02C0 19.11.896 20 2.006 20h15.988A2.003 2.003 0 0 0 20 18.01V1.99C20 .89 19.102 0 18.01 0H1.99zm14.78 5.912a5.386 5.386 0 0 1-1.608.463 2.92 2.92 0 0 0 1.23-1.628c-.54.337-1.14.582-1.777.714a2.738 2.738 0 0 0-2.043-.928c-1.546 0-2.8 1.318-2.8 2.943 0 .23.025.456.073.67-2.327-.122-4.39-1.294-5.77-3.074-.242.435-.38.94-.38 1.48 0 1.022.495 1.923 1.246 2.45a2.682 2.682 0 0 1-1.27-.368v.037c0 1.425.965 2.615 2.246 2.886a2.683 2.683 0 0 1-1.265.049c.356 1.17 1.39 2.02 2.615 2.044a5.442 5.442 0 0 1-4.145 1.22 7.656 7.656 0 0 0 4.292 1.322c5.15 0 7.965-4.486 7.965-8.375 0-.128-.004-.255-.01-.38a5.884 5.884 0 0 0 1.398-1.525h.003z"/>
</svg>
