<?xml version="1.0" encoding="utf-8"?>
<!-- Generator: Adobe Illustrator 21.1.0, SVG Export Plug-In . SVG Version: 6.00 Build 0)  -->
<svg version="1.1" id="Layer_1" xmlns="http://www.w3.org/2000/svg" xmlns:xlink="http://www.w3.org/1999/xlink" x="0px" y="0px"
	 viewBox="0 0 20 20" style="enable-background:new 0 0 20 20;" xml:space="preserve">
<g>
	<path d="M17.3,17.7H2.7c-1.5,0-2.6-1.3-2.6-2.9V5.4c0-1.5,1.2-2.9,2.6-2.9h14.5c1.5,0,2.6,1.3,2.6,2.9v9.5c0.1,0.7-0.2,1.4-0.7,2
		C18.6,17.4,18,17.7,17.3,17.7z M2.7,3.5c-0.8,0-1.6,0.9-1.6,1.9v9.4c0,1.1,0.7,1.9,1.6,1.9h14.6c0.4,0,0.8-0.2,1.1-0.5
		c0.3-0.3,0.5-0.8,0.4-1.3l0-9.5c0-1.1-0.7-1.9-1.6-1.9H2.7z"/>
	<path d="M8.4,14.2c-0.2,0-0.3,0-0.5-0.1c-0.2-0.1-0.4-0.3-0.5-0.5c-0.1-0.2-0.1-0.3,0-0.5V7c0-0.3,0.1-0.6,0.3-0.9
		c0,0,0.1-0.1,0.1-0.1c0.3-0.2,0.6-0.2,0.9,0c0,0,0.1,0,0.1,0.1l3.8,3.1c0.2,0.2,0.4,0.5,0.4,0.8c0,0.3,0,0.7-0.4,0.9L8.9,14
		C8.8,14.1,8.6,14.2,8.4,14.2z M8.3,13.2C8.3,13.2,8.3,13.2,8.3,13.2L8.3,13.2z M8.3,13.2C8.3,13.2,8.3,13.2,8.3,13.2L8.3,13.2
		C8.3,13.2,8.3,13.2,8.3,13.2z M8.4,7C8.4,7,8.4,7,8.4,7l0,6.1c0,0,0,0,0,0l3.7-3c0,0,0,0,0,0c0,0,0-0.1,0-0.1c0,0,0,0-0.1,0L8.4,7z
		 M12.2,10.1l0.2,0.4L12.2,10.1C12.2,10,12.2,10.1,12.2,10.1z"/>
</g>
</svg>
