<svg xmlns="http://www.w3.org/2000/svg" width="40" height="40" viewBox="0 0 40 40">
    <g fill="none" fill-rule="evenodd">
        <path fill="#FFF" d="M19.75 39.031c10.907 0 19.75-8.642 19.75-19.3C39.5 9.068 30.657.428 19.75.428S0 9.069 0 19.73c0 10.66 8.842 19.301 19.75 19.301"/>
        <path fill="#45474D" d="M9.454 19.679l3.37-3.304a.578.578 0 0 0 .175-.413c0-.326-.271-.59-.605-.59a.602.602 0 0 0-.429.175l-3.368 3.289-3.382-3.295a.611.611 0 0 0-.426-.17.597.597 0 0 0-.604.59c0 .159.065.309.18.42l3.37 3.292-3.368 3.295a.587.587 0 0 0-.182.423c0 .326.27.59.604.59.16 0 .312-.06.426-.171l3.377-3.297 3.364 3.284a.61.61 0 0 0 .438.185.597.597 0 0 0 .604-.59.576.576 0 0 0-.176-.417l-3.369-3.3.001.004zm20.035-.001c0 .592.493 1.072 1.1 1.072.603 0 1.096-.48 1.096-1.072 0-.592-.493-1.073-1.097-1.073s-1.096.48-1.096 1.073h-.003zm-2.08 0c0-1.712 1.425-3.106 3.179-3.106 1.75 0 3.177 1.394 3.177 3.106 0 1.711-1.426 3.106-3.177 3.106-1.753 0-3.179-1.393-3.179-3.106zm-1.25 0c0 2.385 1.987 4.328 4.429 4.328 2.441 0 4.429-1.941 4.429-4.327s-1.988-4.328-4.43-4.328c-2.441 0-4.428 1.941-4.428 4.328v-.001zm-.314-4.253h-.185c-.558 0-1.096.171-1.546.51a.61.61 0 0 0-.593-.463.591.591 0 0 0-.598.587l.002 7.288c0 .324.273.587.602.587a.598.598 0 0 0 .605-.588v-4.483c0-1.492.14-2.097 1.449-2.256.123-.015.253-.012.255-.012.357-.013.612-.254.612-.58a.6.6 0 0 0-.607-.59h.004zm-11.597 3.541c0-.017.002-.034.003-.05.35-1.355 1.606-2.356 3.1-2.356 1.513 0 2.78 1.024 3.113 2.404h-6.217l.001.002zm7.452-.111c-.26-1.204-.935-2.193-1.961-2.828a4.546 4.546 0 0 0-4.934.129 4.342 4.342 0 0 0-1.867 3.552c0 .347.044.698.132 1.044.447 1.716 1.957 3.017 3.759 3.232a4.273 4.273 0 0 0 1.591-.103 4.425 4.425 0 0 0 1.325-.552c.428-.269.786-.624 1.134-1.049l.02-.023c.24-.292.196-.709-.068-.906-.223-.167-.598-.235-.892.134-.063.089-.134.18-.21.27a3.474 3.474 0 0 1-.875.688c-.445.232-.95.363-1.486.367-1.757-.02-2.697-1.219-3.032-2.073a3.127 3.127 0 0 1-.134-.498l-.01-.09H20.5c.863-.02 1.328-.615 1.2-1.296l.001.002z"/>
    </g>
</svg>
