<svg xmlns="http://www.w3.org/2000/svg" width="20" height="20" viewBox="0 0 20 20">
    <path fill="#000" fill-rule="evenodd" d="M1.99 0C.89 0 0 .898 0 1.99v16.02C0 19.11.896 20 2.006 20h15.988A2.003 2.003 0 0 0 20 18.01V1.99C20 .89 19.102 0 18.01 0H1.99zm15.082 6.81s-.14-1.03-.572-1.484c-.547-.595-1.16-.598-1.44-.633-2.012-.15-5.03-.15-5.03-.15h-.006s-3.018 0-5.03.15c-.28.035-.893.038-1.44.633-.43.453-.57 1.483-.57 1.483s-.145 1.208-.145 2.417v1.133c0 1.21.143 2.418.143 2.418s.14 1.03.57 1.483c.548.596 1.266.577 1.586.64 1.15.114 4.887.15 4.887.15s3.02-.006 5.033-.157c.28-.035.893-.037 1.44-.632.43-.453.572-1.482.572-1.482s.143-1.21.143-2.418V9.227c0-1.21-.143-2.418-.143-2.418l.002.001zm-8.53 4.923V7.536l3.885 2.106-3.884 2.09-.001.001z"/>
</svg>
